<mxGraphModel dx="1245" dy="1292" grid="1" gridSize="10" guides="1" tooltips="1" connect="1" arrows="1" fold="1" page="1" pageScale="1" pageWidth="850" pageHeight="1100" math="0" shadow="0">
  <root>
    <mxCell id="0" />
    <mxCell id="1" parent="0" />
    <!-- Global Styles -->
    <mxCell id="Style_StartStop" style="ellipse;whiteSpace=wrap;html=1;fillColor=#6a329f;fontColor=#ffffff;strokeColor=#371960;" vertex="1" parent="1" />
    <mxCell id="Style_Process" style="shape=rectangle;whiteSpace=wrap;html=1;fillColor=#dae8fc;strokeColor=#6c8ebf;" vertex="1" parent="1" />
    <mxCell id="Style_Condition" style="rhombus;whiteSpace=wrap;html=1;fillColor=#f8cecc;strokeColor=#b85450;" vertex="1" parent="1" />
    <mxCell id="Style_Function" style="shape=process;whiteSpace=wrap;html=1;fillColor=#d5e8d4;strokeColor=#82b366;" vertex="1" parent="1" />
    <mxCell id="Style_InputOutput" style="shape=parallelogram;perimeter=parallelogramPerimeter;whiteSpace=wrap;html=1;fillColor=#fff2cc;strokeColor=#d6b656;" vertex="1" parent="1" />
    <mxCell id="Style_ErrorStop" style="ellipse;whiteSpace=wrap;html=1;fillColor=#b85450;fontColor=#ffffff;strokeColor=#5d2b28;" vertex="1" parent="1" />
    
    <!-- Main Flow: main() -->
    <mxCell id="2" value="โปรแกรมหลัก : main()" style="text;html=1;strokeColor=none;fillColor=none;align=center;verticalAlign=middle;whiteSpace=wrap;rounded=0;fontStyle=1;fontSize=14;" vertex="1" parent="1">
      <mxGeometry x="10" y="10" width="200" height="20" as="geometry" />
    </mxCell>
    <mxCell id="3" value="Start" style="ellipse;whiteSpace=wrap;html=1;fillColor=#6a329f;fontColor=#ffffff;strokeColor=#371960;" vertex="1" parent="1">
      <mxGeometry x="50" y="40" width="120" height="40" as="geometry" />
    </mxCell>
    <mxCell id="4" value="กำหนดตัวแปร: students[3] (Array of S)" style="shape=rectangle;whiteSpace=wrap;html=1;fillColor=#dae8fc;strokeColor=#6c8ebf;" vertex="1" parent="1">
      <mxGeometry x="30" y="100" width="160" height="40" as="geometry" />
    </mxCell>
    <mxCell id="5" value="Output: &quot;Enter the details...&quot;" style="shape=parallelogram;perimeter=parallelogramPerimeter;whiteSpace=wrap;html=1;fillColor=#fff2cc;strokeColor=#d6b656;" vertex="1" parent="1">
      <mxGeometry x="30" y="170" width="160" height="40" as="geometry" />
    </mxCell>
    <mxCell id="6" value="i = 0" style="shape=rectangle;whiteSpace=wrap;html=1;fillColor=#dae8fc;strokeColor=#6c8ebf;" vertex="1" parent="1">
      <mxGeometry x="50" y="240" width="120" height="40" as="geometry" />
    </mxCell>
    <mxCell id="7" value="วนซ้ำ : i &lt; 3 ?" style="rhombus;whiteSpace=wrap;html=1;fillColor=#f8cecc;strokeColor=#b85450;" vertex="1" parent="1">
      <mxGeometry x="40" y="320" width="140" height="70" as="geometry" />
    </mxCell>
    <!-- Loop Body (Input) -->
    <mxCell id="8" value="Output/Input: แสดง &quot;Student i+1&quot; และรับชื่อ (Name)" style="shape=parallelogram;perimeter=parallelogramPerimeter;whiteSpace=wrap;html=1;fillColor=#fff2cc;strokeColor=#d6b656;" vertex="1" parent="1">
      <mxGeometry x="30" y="410" width="160" height="50" as="geometry" />
    </mxCell>
    <mxCell id="9" value="รับชื่อ (fgets) สำเร็จ ?" style="rhombus;whiteSpace=wrap;html=1;fillColor=#f8cecc;strokeColor=#b85450;" vertex="1" parent="1">
      <mxGeometry x="40" y="480" width="140" height="60" as="geometry" />
    </mxCell>
    <mxCell id="10" value="Return 1 (Error)" style="ellipse;whiteSpace=wrap;html=1;fillColor=#b85450;fontColor=#ffffff;strokeColor=#5d2b28;" vertex="1" parent="1">
      <mxGeometry x="270" y="570" width="100" height="40" as="geometry" />
    </mxCell>
    <mxCell id="11" value="Process: ลบอักขระขึ้นบรรทัดใหม่ ('\n') จาก Name" style="shape=rectangle;whiteSpace=wrap;html=1;fillColor=#dae8fc;strokeColor=#6c8ebf;" vertex="1" parent="1">
      <mxGeometry x="20" y="560" width="180" height="50" as="geometry" />
    </mxCell>
    <mxCell id="12" value="Output/Input: แสดง &quot;ID&quot; และรับ ID" style="shape=parallelogram;perimeter=parallelogramPerimeter;whiteSpace=wrap;html=1;fillColor=#fff2cc;strokeColor=#d6b656;" vertex="1" parent="1">
      <mxGeometry x="30" y="630" width="160" height="50" as="geometry" />
    </mxCell>
    <mxCell id="13" value="รับ ID (scanf) สำเร็จ ?" style="rhombus;whiteSpace=wrap;html=1;fillColor=#f8cecc;strokeColor=#b85450;" vertex="1" parent="1">
      <mxGeometry x="40" y="700" width="140" height="60" as="geometry" />
    </mxCell>
    <mxCell id="14" value="Output/Input: แสดง/รับคะแนนวิชา 1 ถึง 5 (ScoreSub1-5)" style="shape=parallelogram;perimeter=parallelogramPerimeter;whiteSpace=wrap;html=1;fillColor=#fff2cc;strokeColor=#d6b656;" vertex="1" parent="1">
      <mxGeometry x="20" y="780" width="180" height="50" as="geometry" />
    </mxCell>
    <mxCell id="15" value="รับคะแนนทั้งหมด (scanf) สำเร็จ ?" style="rhombus;whiteSpace=wrap;html=1;fillColor=#f8cecc;strokeColor=#b85450;" vertex="1" parent="1">
      <mxGeometry x="40" y="850" width="140" height="60" as="geometry" />
    </mxCell>
    <mxCell id="16" value="Process: ล้าง Input Buffer (getchar loop)" style="shape=rectangle;whiteSpace=wrap;html=1;fillColor=#dae8fc;strokeColor=#6c8ebf;" vertex="1" parent="1">
      <mxGeometry x="20" y="930" width="180" height="50" as="geometry" />
    </mxCell>
    <mxCell id="17" value="i = i + 1" style="shape=rectangle;whiteSpace=wrap;html=1;fillColor=#dae8fc;strokeColor=#6c8ebf;" vertex="1" parent="1">
      <mxGeometry x="50" y="1000" width="120" height="40" as="geometry" />
    </mxCell>
    <!-- Loop Exit (Display) -->
    <mxCell id="18" value="Output: แสดงบรรทัดว่าง ('\n')" style="shape=parallelogram;perimeter=parallelogramPerimeter;whiteSpace=wrap;html=1;fillColor=#fff2cc;strokeColor=#d6b656;" vertex="1" parent="1">
      <mxGeometry x="270" y="325" width="120" height="60" as="geometry" />
    </mxCell>
    <mxCell id="19" value="i = 0" style="shape=rectangle;whiteSpace=wrap;html=1;fillColor=#dae8fc;strokeColor=#6c8ebf;" vertex="1" parent="1">
      <mxGeometry x="270" y="410" width="120" height="40" as="geometry" />
    </mxCell>
    <mxCell id="20" value="วนซ้ำ : i &lt; 3 ?" style="rhombus;whiteSpace=wrap;html=1;fillColor=#f8cecc;strokeColor=#b85450;" vertex="1" parent="1">
      <mxGeometry x="260" y="480" width="140" height="60" as="geometry" />
    </mxCell>
    <mxCell id="21" value="Function: เรียก displayStudentResults(students[i])" style="shape=process;whiteSpace=wrap;html=1;fillColor=#d5e8d4;strokeColor=#82b366;" vertex="1" parent="1">
      <mxGeometry x="240" y="560" width="180" height="50" as="geometry" />
    </mxCell>
    <mxCell id="22" value="i = i + 1" style="shape=rectangle;whiteSpace=wrap;html=1;fillColor=#dae8fc;strokeColor=#6c8ebf;" vertex="1" parent="1">
      <mxGeometry x="270" y="630" width="120" height="40" as="geometry" />
    </mxCell>
    <mxCell id="23" value="Return 0" style="shape=rectangle;whiteSpace=wrap;html=1;fillColor=#dae8fc;strokeColor=#6c8ebf;" vertex="1" parent="1">
      <mxGeometry x="430" y="490" width="100" height="40" as="geometry" />
    </mxCell>
    <mxCell id="24" value="Stop" style="ellipse;whiteSpace=wrap;html=1;fillColor=#6a329f;fontColor=#ffffff;strokeColor=#371960;" vertex="1" parent="1">
      <mxGeometry x="430" y="570" width="100" height="40" as="geometry" />
    </mxCell>
    <!-- Main Connectors -->
    <mxCell id="25" value="" style="endArrow=classic;html=1;exitX=0.5;exitY=1;entryX=0.5;entryY=0;" edge="1" parent="1" source="3" target="4">
      <mxGeometry width="50" height="50" relative="1" as="geometry">
        <mxPoint x="110" y="80" as="sourcePoint" />
        <mxPoint x="110" y="100" as="targetPoint" />
      </mxGeometry>
    </mxCell>
    <mxCell id="26" value="" style="endArrow=classic;html=1;exitX=0.5;exitY=1;entryX=0.5;entryY=0;" edge="1" parent="1" source="4" target="5">
      <mxGeometry width="50" height="50" relative="1" as="geometry">
        <mxPoint x="110" y="140" as="sourcePoint" />
        <mxPoint x="110" y="170" as="targetPoint" />
      </mxGeometry>
    </mxCell>
    <mxCell id="27" value="" style="endArrow=classic;html=1;exitX=0.5;exitY=1;entryX=0.5;entryY=0;" edge="1" parent="1" source="5" target="6">
      <mxGeometry width="50" height="50" relative="1" as="geometry">
        <mxPoint x="110" y="210" as="sourcePoint" />
        <mxPoint x="110" y="240" as="targetPoint" />
      </mxGeometry>
    </mxCell>
    <mxCell id="28" value="" style="endArrow=classic;html=1;exitX=0.5;exitY=1;entryX=0.5;entryY=0;" edge="1" parent="1" source="6" target="7">
      <mxGeometry width="50" height="50" relative="1" as="geometry">
        <mxPoint x="110" y="280" as="sourcePoint" />
        <mxPoint x="110" y="320" as="targetPoint" />
      </mxGeometry>
    </mxCell>
    
    <!-- Input Loop Connectors -->
    <mxCell id="29" value="True" style="endArrow=classic;html=1;exitX=0.5;exitY=1;entryX=0.5;entryY=0;" edge="1" parent="1" source="7" target="8">
      <mxGeometry width="50" height="50" relative="1" as="geometry">
        <mxPoint x="110" y="390" as="sourcePoint" />
        <mxPoint x="110" y="410" as="targetPoint" />
      </mxGeometry>
    </mxCell>
    <mxCell id="30" value="" style="endArrow=classic;html=1;exitX=0.5;exitY=1;entryX=0.5;entryY=0;" edge="1" parent="1" source="8" target="9">
      <mxGeometry width="50" height="50" relative="1" as="geometry">
        <mxPoint x="110" y="460" as="sourcePoint" />
        <mxPoint x="110" y="480" as="targetPoint" />
      </mxGeometry>
    </mxCell>
    <mxCell id="31" value="False" style="endArrow=classic;html=1;exitX=1;exitY=0.5;entryX=0.5;entryY=0;" edge="1" parent="1" source="9" target="10">
      <mxGeometry width="50" height="50" relative="1" as="geometry">
        <mxPoint x="180" y="510" as="sourcePoint" />
        <mxPoint x="320" y="570" as="targetPoint" />
        <Array as="points">
          <mxPoint x="230" y="510" />
          <mxPoint x="320" y="510" />
        </Array>
      </mxGeometry>
    </mxCell>
    <mxCell id="32" value="True" style="endArrow=classic;html=1;exitX=0.5;exitY=1;entryX=0.5;entryY=0;" edge="1" parent="1" source="9" target="11">
      <mxGeometry width="50" height="50" relative="1" as="geometry">
        <mxPoint x="110" y="540" as="sourcePoint" />
        <mxPoint x="110" y="560" as="targetPoint" />
      </mxGeometry>
    </mxCell>
    <mxCell id="33" value="" style="endArrow=classic;html=1;exitX=0.5;exitY=1;entryX=0.5;entryY=0;" edge="1" parent="1" source="11" target="12">
      <mxGeometry width="50" height="50" relative="1" as="geometry">
        <mxPoint x="110" y="610" as="sourcePoint" />
        <mxPoint x="110" y="630" as="targetPoint" />
      </mxGeometry>
    </mxCell>
    <mxCell id="34" value="" style="endArrow=classic;html=1;exitX=0.5;exitY=1;entryX=0.5;entryY=0;" edge="1" parent="1" source="12" target="13">
      <mxGeometry width="50" height="50" relative="1" as="geometry">
        <mxPoint x="110" y="680" as="sourcePoint" />
        <mxPoint x="110" y="700" as="targetPoint" />
      </mxGeometry>
    </mxCell>
    <mxCell id="35" value="False" style="endArrow=classic;html=1;exitX=1;exitY=0.5;entryX=0.5;entryY=0;" edge="1" parent="1" source="13" target="10">
      <mxGeometry width="50" height="50" relative="1" as="geometry">
        <mxPoint x="180" y="730" as="sourcePoint" />
        <mxPoint x="320" y="590" as="targetPoint" />
        <Array as="points">
          <mxPoint x="230" y="730" />
          <mxPoint x="320" y="730" />
        </Array>
      </mxGeometry>
    </mxCell>
    <mxCell id="36" value="True" style="endArrow=classic;html=1;exitX=0.5;exitY=1;entryX=0.5;entryY=0;" edge="1" parent="1" source="13" target="14">
      <mxGeometry width="50" height="50" relative="1" as="geometry">
        <mxPoint x="110" y="760" as="sourcePoint" />
        <mxPoint x="110" y="780" as="targetPoint" />
      </mxGeometry>
    </mxCell>
    <mxCell id="37" value="" style="endArrow=classic;html=1;exitX=0.5;exitY=1;entryX=0.5;entryY=0;" edge="1" parent="1" source="14" target="15">
      <mxGeometry width="50" height="50" relative="1" as="geometry">
        <mxPoint x="110" y="830" as="sourcePoint" />
        <mxPoint x="110" y="850" as="targetPoint" />
      </mxGeometry>
    </mxCell>
    <mxCell id="38" value="False" style="endArrow=classic;html=1;exitX=1;exitY=0.5;entryX=0.5;entryY=0;" edge="1" parent="1" source="15" target="10">
      <mxGeometry width="50" height="50" relative="1" as="geometry">
        <mxPoint x="180" y="880" as="sourcePoint" />
        <mxPoint x="320" y="590" as="targetPoint" />
        <Array as="points">
          <mxPoint x="230" y="880" />
          <mxPoint x="320" y="880" />
        </Array>
      </mxGeometry>
    </mxCell>
    <mxCell id="39" value="True" style="endArrow=classic;html=1;exitX=0.5;exitY=1;entryX=0.5;entryY=0;" edge="1" parent="1" source="15" target="16">
      <mxGeometry width="50" height="50" relative="1" as="geometry">
        <mxPoint x="110" y="910" as="sourcePoint" />
        <mxPoint x="110" y="930" as="targetPoint" />
      </mxGeometry>
    </mxCell>
    <mxCell id="40" value="" style="endArrow=classic;html=1;exitX=0.5;exitY=1;entryX=0.5;entryY=0;" edge="1" parent="1" source="16" target="17">
      <mxGeometry width="50" height="50" relative="1" as="geometry">
        <mxPoint x="110" y="980" as="sourcePoint" />
        <mxPoint x="110" y="1000" as="targetPoint" />
      </mxGeometry>
    </mxCell>
    <mxCell id="41" value="" style="endArrow=classic;html=1;exitX=0.5;exitY=1;entryX=0.5;entryY=0;" edge="1" parent="1" source="17" target="7">
      <mxGeometry width="50" height="50" relative="1" as="geometry">
        <mxPoint x="110" y="1040" as="sourcePoint" />
        <mxPoint x="110" y="320" as="targetPoint" />
        <Array as="points">
          <mxPoint x="110" y="1070" />
          <mxPoint x="-50" y="1070" />
          <mxPoint x="-50" y="355" />
          <mxPoint x="40" y="355" />
        </Array>
      </mxGeometry>
    </mxCell>
    
    <!-- Display Loop Connectors -->
    <mxCell id="42" value="False" style="endArrow=classic;html=1;exitX=1;exitY=0.5;entryX=0.5;entryY=0;" edge="1" parent="1" source="7" target="18">
      <mxGeometry width="50" height="50" relative="1" as="geometry">
        <mxPoint x="180" y="355" as="sourcePoint" />
        <mxPoint x="270" y="355" as="targetPoint" />
      </mxGeometry>
    </mxCell>
    <mxCell id="43" value="" style="endArrow=classic;html=1;exitX=0.5;exitY=1;entryX=0.5;entryY=0;" edge="1" parent="1" source="18" target="19">
      <mxGeometry width="50" height="50" relative="1" as="geometry">
        <mxPoint x="330" y="385" as="sourcePoint" />
        <mxPoint x="330" y="410" as="targetPoint" />
      </mxGeometry>
    </mxCell>
    <mxCell id="44" value="" style="endArrow=classic;html=1;exitX=0.5;exitY=1;entryX=0.5;entryY=0;" edge="1" parent="1" source="19" target="20">
      <mxGeometry width="50" height="50" relative="1" as="geometry">
        <mxPoint x="330" y="450" as="sourcePoint" />
        <mxPoint x="330" y="480" as="targetPoint" />
      </mxGeometry>
    </mxCell>
    <mxCell id="45" value="False" style="endArrow=classic;html=1;exitX=1;exitY=0.5;entryX=0;entryY=0.5;" edge="1" parent="1" source="20" target="23">
      <mxGeometry width="50" height="50" relative="1" as="geometry">
        <mxPoint x="400" y="510" as="sourcePoint" />
        <mxPoint x="430" y="510" as="targetPoint" />
      </mxGeometry>
    </mxCell>
    <mxCell id="46" value="True" style="endArrow=classic;html=1;exitX=0.5;exitY=1;entryX=0.5;entryY=0;" edge="1" parent="1" source="20" target="21">
      <mxGeometry width="50" height="50" relative="1" as="geometry">
        <mxPoint x="330" y="540" as="sourcePoint" />
        <mxPoint x="330" y="560" as="targetPoint" />
      </mxGeometry>
    </mxCell>
    <mxCell id="47" value="" style="endArrow=classic;html=1;exitX=0.5;exitY=1;entryX=0.5;entryY=0;" edge="1" parent="1" source="21" target="22">
      <mxGeometry width="50" height="50" relative="1" as="geometry">
        <mxPoint x="330" y="610" as="sourcePoint" />
        <mxPoint x="330" y="630" as="targetPoint" />
      </mxGeometry>
    </mxCell>
    <mxCell id="48" value="" style="endArrow=classic;html=1;exitX=0.5;exitY=1;entryX=0.5;entryY=0;" edge="1" parent="1" source="22" target="20">
      <mxGeometry width="50" height="50" relative="1" as="geometry">
        <mxPoint x="330" y="670" as="sourcePoint" />
        <mxPoint x="330" y="480" as="targetPoint" />
        <Array as="points">
          <mxPoint x="330" y="700" />
          <mxPoint x="450" y="700" />
          <mxPoint x="450" y="440" />
          <mxPoint x="375" y="440" />
          <mxPoint x="375" y="480" />
          <mxPoint x="330" y="480" />
        </Array>
      </mxGeometry>
    </mxCell>
    <mxCell id="49" value="" style="endArrow=classic;html=1;exitX=0.5;exitY=1;entryX=0.5;entryY=0;" edge="1" parent="1" source="23" target="24">
      <mxGeometry width="50" height="50" relative="1" as="geometry">
        <mxPoint x="480" y="530" as="sourcePoint" />
        <mxPoint x="480" y="570" as="targetPoint" />
      </mxGeometry>
    </mxCell>
    
    <!-- Function: calculateGrade(score) -->
    <mxCell id="50" value="ฟังก์ชันย่อย: calculateGrade(คะแนน)" style="text;html=1;strokeColor=none;fillColor=none;align=center;verticalAlign=middle;whiteSpace=wrap;rounded=0;fontStyle=1;fontSize=14;" vertex="1" parent="1">
      <mxGeometry x="540" y="10" width="200" height="20" as="geometry" />
    </mxCell>
    <mxCell id="51" value="Start (Function)" style="ellipse;whiteSpace=wrap;html=1;fillColor=#6a329f;fontColor=#ffffff;strokeColor=#371960;" vertex="1" parent="1">
      <mxGeometry x="580" y="40" width="120" height="40" as="geometry" />
    </mxCell>
    <mxCell id="52" value="คะแนน &gt;= 80.0 ?" style="rhombus;whiteSpace=wrap;html=1;fillColor=#f8cecc;strokeColor=#b85450;" vertex="1" parent="1">
      <mxGeometry x="570" y="100" width="140" height="60" as="geometry" />
    </mxCell>
    <mxCell id="53" value="Return &quot;A&quot;" style="shape=rectangle;whiteSpace=wrap;html=1;fillColor=#dae8fc;strokeColor=#6c8ebf;" vertex="1" parent="1">
      <mxGeometry x="740" y="110" width="100" height="40" as="geometry" />
    </mxCell>
    <mxCell id="54" value="คะแนน &gt;= 75.0 ?" style="rhombus;whiteSpace=wrap;html=1;fillColor=#f8cecc;strokeColor=#b85450;" vertex="1" parent="1">
      <mxGeometry x="570" y="180" width="140" height="60" as="geometry" />
    </mxCell>
    <mxCell id="55" value="Return &quot;B+&quot;" style="shape=rectangle;whiteSpace=wrap;html=1;fillColor=#dae8fc;strokeColor=#6c8ebf;" vertex="1" parent="1">
      <mxGeometry x="740" y="190" width="100" height="40" as="geometry" />
    </mxCell>
    <mxCell id="56" value="คะแนน &gt;= 70.0 ?" style="rhombus;whiteSpace=wrap;html=1;fillColor=#f8cecc;strokeColor=#b85450;" vertex="1" parent="1">
      <mxGeometry x="570" y="260" width="140" height="60" as="geometry" />
    </mxCell>
    <mxCell id="57" value="Return &quot;B&quot;" style="shape=rectangle;whiteSpace=wrap;html=1;fillColor=#dae8fc;strokeColor=#6c8ebf;" vertex="1" parent="1">
      <mxGeometry x="740" y="270" width="100" height="40" as="geometry" />
    </mxCell>
    <mxCell id="58" value="คะแนน &gt;= 65.0 ?" style="rhombus;whiteSpace=wrap;html=1;fillColor=#f8cecc;strokeColor=#b85450;" vertex="1" parent="1">
      <mxGeometry x="570" y="340" width="140" height="60" as="geometry" />
    </mxCell>
    <mxCell id="59" value="Return &quot;C+&quot;" style="shape=rectangle;whiteSpace=wrap;html=1;fillColor=#dae8fc;strokeColor=#6c8ebf;" vertex="1" parent="1">
      <mxGeometry x="740" y="350" width="100" height="40" as="geometry" />
    </mxCell>
    <mxCell id="60" value="คะแนน &gt;= 60.0 ?" style="rhombus;whiteSpace=wrap;html=1;fillColor=#f8cecc;strokeColor=#b85450;" vertex="1" parent="1">
      <mxGeometry x="570" y="420" width="140" height="60" as="geometry" />
    </mxCell>
    <mxCell id="61" value="Return &quot;C&quot;" style="shape=rectangle;whiteSpace=wrap;html=1;fillColor=#dae8fc;strokeColor=#6c8ebf;" vertex="1" parent="1">
      <mxGeometry x="740" y="430" width="100" height="40" as="geometry" />
    </mxCell>
    <mxCell id="62" value="คะแนน &gt;= 55.0 ?" style="rhombus;whiteSpace=wrap;html=1;fillColor=#f8cecc;strokeColor=#b85450;" vertex="1" parent="1">
      <mxGeometry x="570" y="500" width="140" height="60" as="geometry" />
    </mxCell>
    <mxCell id="63" value="Return &quot;D+&quot;" style="shape=rectangle;whiteSpace=wrap;html=1;fillColor=#dae8fc;strokeColor=#6c8ebf;" vertex="1" parent="1">
      <mxGeometry x="740" y="510" width="100" height="40" as="geometry" />
    </mxCell>
    <mxCell id="64" value="คะแนน &gt;= 50.0 ?" style="rhombus;whiteSpace=wrap;html=1;fillColor=#f8cecc;strokeColor=#b85450;" vertex="1" parent="1">
      <mxGeometry x="570" y="580" width="140" height="60" as="geometry" />
    </mxCell>
    <mxCell id="65" value="Return &quot;D&quot;" style="shape=rectangle;whiteSpace=wrap;html=1;fillColor=#dae8fc;strokeColor=#6c8ebf;" vertex="1" parent="1">
      <mxGeometry x="740" y="590" width="100" height="40" as="geometry" />
    </mxCell>
    <mxCell id="66" value="Return &quot;F&quot;" style="shape=rectangle;whiteSpace=wrap;html=1;fillColor=#dae8fc;strokeColor=#6c8ebf;" vertex="1" parent="1">
      <mxGeometry x="590" y="680" width="100" height="40" as="geometry" />
    </mxCell>
    <mxCell id="67" value="Stop (Function)" style="ellipse;whiteSpace=wrap;html=1;fillColor=#6a329f;fontColor=#ffffff;strokeColor=#371960;" vertex="1" parent="1">
      <mxGeometry x="740" y="680" width="120" height="40" as="geometry" />
    </mxCell>
    
    <!-- calculateGrade Connectors -->
    <mxCell id="68" value="" style="endArrow=classic;html=1;exitX=0.5;exitY=1;entryX=0.5;entryY=0;" edge="1" parent="1" source="51" target="52">
      <mxGeometry width="50" height="50" relative="1" as="geometry">
        <mxPoint x="640" y="80" as="sourcePoint" />
        <mxPoint x="640" y="100" as="targetPoint" />
      </mxGeometry>
    </mxCell>
    <mxCell id="69" value="True" style="endArrow=classic;html=1;exitX=1;exitY=0.5;entryX=0;entryY=0.5;" edge="1" parent="1" source="52" target="53">
      <mxGeometry width="50" height="50" relative="1" as="geometry">
        <mxPoint x="710" y="130" as="sourcePoint" />
        <mxPoint x="740" y="130" as="targetPoint" />
      </mxGeometry>
    </mxCell>
    <mxCell id="70" value="False" style="endArrow=classic;html=1;exitX=0.5;exitY=1;entryX=0.5;entryY=0;" edge="1" parent="1" source="52" target="54">
      <mxGeometry width="50" height="50" relative="1" as="geometry">
        <mxPoint x="640" y="160" as="sourcePoint" />
        <mxPoint x="640" y="180" as="targetPoint" />
      </mxGeometry>
    </mxCell>
    <mxCell id="71" value="True" style="endArrow=classic;html=1;exitX=1;exitY=0.5;entryX=0;entryY=0.5;" edge="1" parent="1" source="54" target="55">
      <mxGeometry width="50" height="50" relative="1" as="geometry">
        <mxPoint x="710" y="210" as="sourcePoint" />
        <mxPoint x="740" y="210" as="targetPoint" />
      </mxGeometry>
    </mxCell>
    <mxCell id="72" value="False" style="endArrow=classic;html=1;exitX=0.5;exitY=1;entryX=0.5;entryY=0;" edge="1" parent="1" source="54" target="56">
      <mxGeometry width="50" height="50" relative="1" as="geometry">
        <mxPoint x="640" y="240" as="sourcePoint" />
        <mxPoint x="640" y="260" as="targetPoint" />
      </mxGeometry>
    </mxCell>
    <mxCell id="73" value="True" style="endArrow=classic;html=1;exitX=1;exitY=0.5;entryX=0;entryY=0.5;" edge="1" parent="1" source="56" target="57">
      <mxGeometry width="50" height="50" relative="1" as="geometry">
        <mxPoint x="710" y="290" as="sourcePoint" />
        <mxPoint x="740" y="290" as="targetPoint" />
      </mxGeometry>
    </mxCell>
    <mxCell id="74" value="False" style="endArrow=classic;html=1;exitX=0.5;exitY=1;entryX=0.5;entryY=0;" edge="1" parent="1" source="56" target="58">
      <mxGeometry width="50" height="50" relative="1" as="geometry">
        <mxPoint x="640" y="320" as="sourcePoint" />
        <mxPoint x="640" y="340" as="targetPoint" />
      </mxGeometry>
    </mxCell>
    <mxCell id="75" value="True" style="endArrow=classic;html=1;exitX=1;exitY=0.5;entryX=0;entryY=0.5;" edge="1" parent="1" source="58" target="59">
      <mxGeometry width="50" height="50" relative="1" as="geometry">
        <mxPoint x="710" y="370" as="sourcePoint" />
        <mxPoint x="740" y="370" as="targetPoint" />
      </mxGeometry>
    </mxCell>
    <mxCell id="76" value="False" style="endArrow=classic;html=1;exitX=0.5;exitY=1;entryX=0.5;entryY=0;" edge="1" parent="1" source="58" target="60">
      <mxGeometry width="50" height="50" relative="1" as="geometry">
        <mxPoint x="640" y="400" as="sourcePoint" />
        <mxPoint x="640" y="420" as="targetPoint" />
      </mxGeometry>
    </mxCell>
    <mxCell id="77" value="True" style="endArrow=classic;html=1;exitX=1;exitY=0.5;entryX=0;entryY=0.5;" edge="1" parent="1" source="60" target="61">
      <mxGeometry width="50" height="50" relative="1" as="geometry">
        <mxPoint x="710" y="450" as="sourcePoint" />
        <mxPoint x="740" y="450" as="targetPoint" />
      </mxGeometry>
    </mxCell>
    <mxCell id="78" value="False" style="endArrow=classic;html=1;exitX=0.5;exitY=1;entryX=0.5;entryY=0;" edge="1" parent="1" source="60" target="62">
      <mxGeometry width="50" height="50" relative="1" as="geometry">
        <mxPoint x="640" y="480" as="sourcePoint" />
        <mxPoint x="640" y="500" as="targetPoint" />
      </mxGeometry>
    </mxCell>
    <mxCell id="79" value="True" style="endArrow=classic;html=1;exitX=1;exitY=0.5;entryX=0;entryY=0.5;" edge="1" parent="1" source="62" target="63">
      <mxGeometry width="50" height="50" relative="1" as="geometry">
        <mxPoint x="710" y="530" as="sourcePoint" />
        <mxPoint x="740" y="530" as="targetPoint" />
      </mxGeometry>
    </mxCell>
    <mxCell id="80" value="False" style="endArrow=classic;html=1;exitX=0.5;exitY=1;entryX=0.5;entryY=0;" edge="1" parent="1" source="62" target="64">
      <mxGeometry width="50" height="50" relative="1" as="geometry">
        <mxPoint x="640" y="560" as="sourcePoint" />
        <mxPoint x="640" y="580" as="targetPoint" />
      </mxGeometry>
    </mxCell>
    <mxCell id="81" value="True" style="endArrow=classic;html=1;exitX=1;exitY=0.5;entryX=0;entryY=0.5;" edge="1" parent="1" source="64" target="65">
      <mxGeometry width="50" height="50" relative="1" as="geometry">
        <mxPoint x="710" y="610" as="sourcePoint" />
        <mxPoint x="740" y="610" as="targetPoint" />
      </mxGeometry>
    </mxCell>
    <mxCell id="82" value="False" style="endArrow=classic;html=1;exitX=0.5;exitY=1;entryX=0.5;entryY=0;" edge="1" parent="1" source="64" target="66">
      <mxGeometry width="50" height="50" relative="1" as="geometry">
        <mxPoint x="640" y="640" as="sourcePoint" />
        <mxPoint x="640" y="680" as="targetPoint" />
      </mxGeometry>
    </mxCell>
    <mxCell id="83" value="" style="endArrow=classic;html=1;exitX=0.5;exitY=1;entryX=0;entryY=0.5;" edge="1" parent="1" source="65" target="67">
      <mxGeometry width="50" height="50" relative="1" as="geometry">
        <mxPoint x="790" y="630" as="sourcePoint" />
        <mxPoint x="800" y="680" as="targetPoint" />
        <Array as="points">
          <mxPoint x="790" y="660" />
        </Array>
      </mxGeometry>
    </mxCell>
    <mxCell id="84" value="" style="endArrow=classic;html=1;exitX=0.5;exitY=1;entryX=0;entryY=0.5;" edge="1" parent="1" source="66" target="67">
      <mxGeometry width="50" height="50" relative="1" as="geometry">
        <mxPoint x="640" y="720" as="sourcePoint" />
        <mxPoint x="800" y="700" as="targetPoint" />
        <Array as="points">
          <mxPoint x="640" y="700" />
        </Array>
      </mxGeometry>
    </mxCell>
    <mxCell id="85" value="" style="endArrow=classic;html=1;exitX=0.5;exitY=1;entryX=0.5;entryY=0;" edge="1" parent="1" source="53" target="67">
      <mxGeometry width="50" height="50" relative="1" as="geometry">
        <mxPoint x="790" y="150" as="sourcePoint" />
        <mxPoint x="790" y="680" as="targetPoint" />
        <Array as="points">
          <mxPoint x="790" y="170" />
          <mxPoint x="890" y="170" />
          <mxPoint x="890" y="660" />
          <mxPoint x="800" y="660" />
        </Array>
      </mxGeometry>
    </mxCell>
    <mxCell id="86" value="" style="endArrow=classic;html=1;exitX=0.5;exitY=1;entryX=0.5;entryY=0;" edge="1" parent="1" source="55" target="67">
      <mxGeometry width="50" height="50" relative="1" as="geometry">
        <mxPoint x="790" y="230" as="sourcePoint" />
        <mxPoint x="790" y="680" as="targetPoint" />
        <Array as="points">
          <mxPoint x="790" y="250" />
          <mxPoint x="870" y="250" />
          <mxPoint x="870" y="660" />
          <mxPoint x="800" y="660" />
        </Array>
      </mxGeometry>
    </mxCell>
    <mxCell id="87" value="" style="endArrow=classic;html=1;exitX=0.5;exitY=1;entryX=0.5;entryY=0;" edge="1" parent="1" source="57" target="67">
      <mxGeometry width="50" height="50" relative="1" as="geometry">
        <mxPoint x="790" y="310" as="sourcePoint" />
        <mxPoint x="790" y="680" as="targetPoint" />
        <Array as="points">
          <mxPoint x="790" y="330" />
          <mxPoint x="850" y="330" />
          <mxPoint x="850" y="660" />
          <mxPoint x="800" y="660" />
        </Array>
      </mxGeometry>
    </mxCell>
    <mxCell id="88" value="" style="endArrow=classic;html=1;exitX=0.5;exitY=1;entryX=0.5;entryY=0;" edge="1" parent="1" source="59" target="67">
      <mxGeometry width="50" height="50" relative="1" as="geometry">
        <mxPoint x="790" y="390" as="sourcePoint" />
        <mxPoint x="790" y="680" as="targetPoint" />
        <Array as="points">
          <mxPoint x="790" y="410" />
          <mxPoint x="830" y="410" />
          <mxPoint x="830" y="660" />
          <mxPoint x="800" y="660" />
        </Array>
      </mxGeometry>
    </mxCell>
    <mxCell id="89" value="" style="endArrow=classic;html=1;exitX=0.5;exitY=1;entryX=0.5;entryY=0;" edge="1" parent="1" source="61" target="67">
      <mxGeometry width="50" height="50" relative="1" as="geometry">
        <mxPoint x="790" y="470" as="sourcePoint" />
        <mxPoint x="790" y="680" as="targetPoint" />
        <Array as="points">
          <mxPoint x="790" y="490" />
          <mxPoint x="810" y="490" />
          <mxPoint x="810" y="660" />
          <mxPoint x="800" y="660" />
        </Array>
      </mxGeometry>
    </mxCell>
    <mxCell id="90" value="" style="endArrow=classic;html=1;exitX=0.5;exitY=1;entryX=0.5;entryY=0;" edge="1" parent="1" source="63" target="67">
      <mxGeometry width="50" height="50" relative="1" as="geometry">
        <mxPoint x="790" y="550" as="sourcePoint" />
        <mxPoint x="790" y="680" as="targetPoint" />
        <Array as="points">
          <mxPoint x="790" y="570" />
          <mxPoint x="770" y="570" />
          <mxPoint x="770" y="660" />
          <mxPoint x="800" y="660" />
        </Array>
      </mxGeometry>
    </mxCell>
    
    <!-- Function: displayStudentResults(student) -->
    <mxCell id="91" value="ฟังก์ชันย่อย: displayStudentResults(student)" style="text;html=1;strokeColor=none;fillColor=none;align=center;verticalAlign=middle;whiteSpace=wrap;rounded=0;fontStyle=1;fontSize=14;" vertex="1" parent="1">
      <mxGeometry x="540" y="750" width="250" height="20" as="geometry" />
    </mxCell>
    <mxCell id="92" value="Start (Function)" style="ellipse;whiteSpace=wrap;html=1;fillColor=#6a329f;fontColor=#ffffff;strokeColor=#371960;" vertex="1" parent="1">
      <mxGeometry x="580" y="780" width="120" height="40" as="geometry" />
    </mxCell>
    <mxCell id="93" value="Process: คำนวณคะแนนเฉลี่ย (averageScore)" style="shape=rectangle;whiteSpace=wrap;html=1;fillColor=#dae8fc;strokeColor=#6c8ebf;" vertex="1" parent="1">
      <mxGeometry x="540" y="840" width="200" height="40" as="geometry" />
    </mxCell>
    <mxCell id="94" value="Output: แสดง ID, Name, ID" style="shape=parallelogram;perimeter=parallelogramPerimeter;whiteSpace=wrap;html=1;fillColor=#fff2cc;strokeColor=#d6b656;" vertex="1" parent="1">
      <mxGeometry x="560" y="910" width="160" height="40" as="geometry" />
    </mxCell>
    <mxCell id="95" value="Output: แสดงคะแนน 5 วิชา" style="shape=parallelogram;perimeter=parallelogramPerimeter;whiteSpace=wrap;html=1;fillColor=#fff2cc;strokeColor=#d6b656;" vertex="1" parent="1">
      <mxGeometry x="560" y="980" width="160" height="40" as="geometry" />
    </mxCell>
    <mxCell id="96" value="Function: เรียก calculateGrade(ScoreSub1)" style="shape=process;whiteSpace=wrap;html=1;fillColor=#d5e8d4;strokeColor=#82b366;" vertex="1" parent="1">
      <mxGeometry x="550" y="1050" width="180" height="40" as="geometry" />
    </mxCell>
    <mxCell id="97" value="Function: เรียก calculateGrade(ScoreSub2)" style="shape=process;whiteSpace=wrap;html=1;fillColor=#d5e8d4;strokeColor=#82b366;" vertex="1" parent="1">
      <mxGeometry x="550" y="1110" width="180" height="40" as="geometry" />
    </mxCell>
    <mxCell id="98" value="Function: เรียก calculateGrade(ScoreSub3)" style="shape=process;whiteSpace=wrap;html=1;fillColor=#d5e8d4;strokeColor=#82b366;" vertex="1" parent="1">
      <mxGeometry x="550" y="1170" width="180" height="40" as="geometry" />
    </mxCell>
    <mxCell id="99" value="Function: เรียก calculateGrade(ScoreSub4)" style="shape=process;whiteSpace=wrap;html=1;fillColor=#d5e8d4;strokeColor=#82b366;" vertex="1" parent="1">
      <mxGeometry x="550" y="1230" width="180" height="40" as="geometry" />
    </mxCell>
    <mxCell id="100" value="Function: เรียก calculateGrade(ScoreSub5)" style="shape=process;whiteSpace=wrap;html=1;fillColor=#d5e8d4;strokeColor=#82b366;" vertex="1" parent="1">
      <mxGeometry x="550" y="1290" width="180" height="40" as="geometry" />
    </mxCell>
    <mxCell id="101" value="Output: แสดงเกรด 5 วิชา" style="shape=parallelogram;perimeter=parallelogramPerimeter;whiteSpace=wrap;html=1;fillColor=#fff2cc;strokeColor=#d6b656;" vertex="1" parent="1">
      <mxGeometry x="560" y="1360" width="160" height="40" as="geometry" />
    </mxCell>
    <mxCell id="102" value="Output: แสดงคะแนนเฉลี่ย (averageScore)" style="shape=parallelogram;perimeter=parallelogramPerimeter;whiteSpace=wrap;html=1;fillColor=#fff2cc;strokeColor=#d6b656;" vertex="1" parent="1">
      <mxGeometry x="540" y="1430" width="200" height="40" as="geometry" />
    </mxCell>
    <mxCell id="103" value="Stop (Function)" style="ellipse;whiteSpace=wrap;html=1;fillColor=#6a329f;fontColor=#ffffff;strokeColor=#371960;" vertex="1" parent="1">
      <mxGeometry x="580" y="1500" width="120" height="40" as="geometry" />
    </mxCell>
    
    <!-- displayStudentResults Connectors -->
    <mxCell id="104" value="" style="endArrow=classic;html=1;exitX=0.5;exitY=1;entryX=0.5;entryY=0;" edge="1" parent="1" source="92" target="93">
      <mxGeometry width="50" height="50" relative="1" as="geometry">
        <mxPoint x="640" y="820" as="sourcePoint" />
        <mxPoint x="640" y="840" as="targetPoint" />
      </mxGeometry>
    </mxCell>
    <mxCell id="105" value="" style="endArrow=classic;html=1;exitX=0.5;exitY=1;entryX=0.5;entryY=0;" edge="1" parent="1" source="93" target="94">
      <mxGeometry width="50" height="50" relative="1" as="geometry">
        <mxPoint x="640" y="880" as="sourcePoint" />
        <mxPoint x="640" y="910" as="targetPoint" />
      </mxGeometry>
    </mxCell>
    <mxCell id="106" value="" style="endArrow=classic;html=1;exitX=0.5;exitY=1;entryX=0.5;entryY=0;" edge="1" parent="1" source="94" target="95">
      <mxGeometry width="50" height="50" relative="1" as="geometry">
        <mxPoint x="640" y="950" as="sourcePoint" />
        <mxPoint x="640" y="980" as="targetPoint" />
      </mxGeometry>
    </mxCell>
    <mxCell id="107" value="" style="endArrow=classic;html=1;exitX=0.5;exitY=1;entryX=0.5;entryY=0;" edge="1" parent="1" source="95" target="96">
      <mxGeometry width="50" height="50" relative="1" as="geometry">
        <mxPoint x="640" y="1020" as="sourcePoint" />
        <mxPoint x="640" y="1050" as="targetPoint" />
      </mxGeometry>
    </mxCell>
    <mxCell id="108" value="" style="endArrow=classic;html=1;exitX=0.5;exitY=1;entryX=0.5;entryY=0;" edge="1" parent="1" source="96" target="97">
      <mxGeometry width="50" height="50" relative="1" as="geometry">
        <mxPoint x="640" y="1090" as="sourcePoint" />
        <mxPoint x="640" y="1110" as="targetPoint" />
      </mxGeometry>
    </mxCell>
    <mxCell id="109" value="" style="endArrow=classic;html=1;exitX=0.5;exitY=1;entryX=0.5;entryY=0;" edge="1" parent="1" source="97" target="98">
      <mxGeometry width="50" height="50" relative="1" as="geometry">
        <mxPoint x="640" y="1150" as="sourcePoint" />
        <mxPoint x="640" y="1170" as="targetPoint" />
      </mxGeometry>
    </mxCell>
    <mxCell id="110" value="" style="endArrow=classic;html=1;exitX=0.5;exitY=1;entryX=0.5;entryY=0;" edge="1" parent="1" source="98" target="99">
      <mxGeometry width="50" height="50" relative="1" as="geometry">
        <mxPoint x="640" y="1210" as="sourcePoint" />
        <mxPoint x="640" y="1230" as="targetPoint" />
      </mxGeometry>
    </mxCell>
    <mxCell id="111" value="" style="endArrow=classic;html=1;exitX=0.5;exitY=1;entryX=0.5;entryY=0;" edge="1" parent="1" source="99" target="100">
      <mxGeometry width="50" height="50" relative="1" as="geometry">
        <mxPoint x="640" y="1270" as="sourcePoint" />
        <mxPoint x="640" y="1290" as="targetPoint" />
      </mxGeometry>
    </mxCell>
    <mxCell id="112" value="" style="endArrow=classic;html=1;exitX=0.5;exitY=1;entryX=0.5;entryY=0;" edge="1" parent="1" source="100" target="101">
      <mxGeometry width="50" height="50" relative="1" as="geometry">
        <mxPoint x="640" y="1330" as="sourcePoint" />
        <mxPoint x="640" y="1360" as="targetPoint" />
      </mxGeometry>
    </mxCell>
    <mxCell id="113" value="" style="endArrow=classic;html=1;exitX=0.5;exitY=1;entryX=0.5;entryY=0;" edge="1" parent="1" source="101" target="102">
      <mxGeometry width="50" height="50" relative="1" as="geometry">
        <mxPoint x="640" y="1400" as="sourcePoint" />
        <mxPoint x="640" y="1430" as="targetPoint" />
      </mxGeometry>
    </mxCell>
    <mxCell id="114" value="" style="endArrow=classic;html=1;exitX=0.5;exitY=1;entryX=0.5;entryY=0;" edge="1" parent="1" source="102" target="103">
      <mxGeometry width="50" height="50" relative="1" as="geometry">
        <mxPoint x="640" y="1470" as="sourcePoint" />
        <mxPoint x="640" y="1500" as="targetPoint" />
      </mxGeometry>
    </mxCell>
  </root>
</mxGraphModel>
